<svg width="100%" height="100%" viewBox="0 0 1560 1013" preserveAspectRatio="none" fill="none" xmlns="http://www.w3.org/2000/svg">
<path d="M1558 1C1548.95 2.05772 1554.86 119.645 1554.86 125.534C1554.86 176.608 1554.86 227.682 1554.86 278.756C1554.86 311.646 1557.48 345.739 1553.46 378.514C1549.63 409.816 1537.64 428.017 1509.16 445.019C1473.03 466.581 1433.79 484.707 1395.43 502.395C1294.13 549.108 1189.21 579.7 1075.88 584.223C1005.27 587.04 937.955 582.396 868.311 573.138C794.692 563.353 718.586 563.487 644.345 558.468C572.633 553.62 500.621 552.6 428.752 552.6C419.449 552.6 391.541 552.6 400.844 552.6C423.59 552.6 448.738 567.149 469.045 574.769C574.177 614.216 677.686 661.553 790.865 676.808C836.874 683.009 878.445 685.04 921.686 668.658C937.973 662.487 952.374 655.21 966.165 645.186C976.806 637.451 955.351 633.368 948.199 630.026C846.233 582.383 737.568 534.515 620.798 538.093C580.259 539.335 549.47 560.402 517.187 581.615C461.376 618.286 414.821 667.782 368.4 714.299C331.797 750.977 271.121 780.628 216.996 761.569C190.061 752.084 165.528 725.795 144.434 708.104C124.366 691.274 104.077 675.26 83.0356 659.53C74.1527 652.889 29.4867 625.316 20.2415 643.556C16.8526 650.241 16.4041 660.859 16.4041 668.332C16.4041 681.211 11.9172 693.785 10.2991 706.637C6.96384 733.13 3.84527 761.962 3.84527 788.628C3.84527 832.573 -6.7551 886.667 22.8579 923.92C55.9117 965.501 106.168 979.274 158.737 988.795C244.772 1004.38 337.475 1018.45 425.264 1006.56C532.896 991.985 636.933 959.948 745.339 948.533C831.119 939.501 916.024 936.96 1002.27 936.96" stroke="black" stroke-width="3" stroke-linecap="round" vector-effect="non-scaling-stroke"/>
</svg>
