<svg width="100%" height="100%" viewBox="0 -5 1920 210" fill="none" xmlns="http://www.w3.org/2000/svg">
<path d="M-4 146.663C464.5 109 925.868 146.663 1390.8 146.663C1446.42 146.663 1502.26 147.854 1557.86 146.223C1601.21 144.952 1644.24 142.286 1687.69 143.144C1716.73 143.717 1745.36 146.74 1774.19 149.523C1778.22 149.912 1793.33 153.208 1797.9 150.843C1805.19 147.073 1790.94 136.796 1784.87 131.595C1734.07 88.0672 1668.05 55.0911 1604.53 28.7536C1567.9 13.5672 1516.52 -5.73258 1474.83 5.2157C1448.66 12.0881 1442.28 43.4613 1438.96 63.9505C1432.72 102.438 1449.13 140.888 1483.14 165.582C1499.09 177.162 1520.79 190.091 1541.23 194.619C1554.67 197.597 1559.25 182.366 1566.55 175.261C1574.72 167.306 1578.84 164.767 1590.88 159.972C1626.8 145.656 1667.32 137.736 1705.56 130.385C1777.56 116.542 1850.79 111.062 1924 105.087" stroke="black" stroke-width="3" stroke-linecap="round" vector-effect="non-scaling-stroke"/>
</svg>
