<svg width="1920" height="240" viewBox="0 0 1920 240" fill="none" xmlns="http://www.w3.org/2000/svg">
<path d="M-3 79.1911C78.4071 79.1911 160.977 111.231 241.386 36.3072C250.671 27.6551 259.919 2 269 2" stroke="black" stroke-width="3" stroke-linecap="round"/>
<path d="M387 192.548C763.622 192.548 1140.32 190.466 1516.92 194.417C1643.51 195.744 2023.11 206 1896.51 206" stroke="black" stroke-width="3" stroke-linecap="round"/>
<path d="M267.288 2.90632C266.793 3.64605 266.352 4.22838 266.392 6.58137C266.431 8.93436 266.989 10.3588 267.493 14.687C268.004 19.0152 268.318 21.801 268.916 28.2226C269.506 34.6441 269.828 38.5631 270.466 46.771C271.095 54.9789 271.394 59.8423 272.07 69.2621C272.738 78.6898 273.077 83.8758 273.808 93.8937C274.547 103.912 274.972 109.279 275.735 119.352C276.506 129.425 277.064 134.626 277.646 144.274C278.22 153.922 278.488 158.684 278.621 167.592C278.763 176.508 278.724 181.001 278.338 188.832C277.953 196.67 277.685 200.423 276.687 206.766C275.68 213.109 274.917 215.966 273.328 220.562C271.747 225.157 270.717 227.03 268.759 229.737C266.8 232.445 265.778 233.176 263.544 234.105C261.311 235.034 260.139 234.994 257.599 234.388C255.05 233.775 253.564 233.074 250.819 231.06C248.082 229.037 246.517 227.534 243.898 224.315C241.271 221.089 239.738 218.98 237.693 214.943C235.656 210.898 234.704 208.545 233.682 204.122C232.667 199.699 232.392 197.268 232.612 192.822C232.832 188.383 233.186 186.148 234.783 181.93C236.379 177.712 237.669 175.658 240.611 171.731C243.552 167.796 245.447 165.861 249.482 162.288C253.525 158.715 255.986 157.07 260.8 153.875C265.621 150.672 268.35 149.279 273.564 146.297C278.779 143.314 281.61 141.843 286.864 138.962C292.125 136.082 294.752 134.776 299.849 131.888C304.945 128.992 307.564 127.56 312.338 124.506C317.12 121.461 319.487 119.95 323.742 116.652C327.989 113.347 329.971 111.592 333.597 108.012C337.23 104.431 339.079 102.424 341.894 98.7571C344.718 95.082 345.795 93.217 347.683 89.6442C349.57 86.0714 350.215 84.3559 351.316 80.8933C352.425 77.4307 352.795 75.8253 353.204 72.3312C353.605 68.8451 353.463 67.0744 353.353 63.4308C353.243 59.7951 352.984 57.812 352.653 54.1526C352.323 50.4854 352.134 48.4709 351.686 45.1263C351.238 41.7818 351.151 39.9639 350.404 37.422C349.665 34.8723 349.177 33.6368 347.974 32.4013C346.763 31.1658 345.756 30.7408 344.387 31.2287C343.011 31.7166 342.193 32.1967 341.108 34.8408C340.022 37.4771 340.03 39.4288 338.968 44.4259C337.915 49.4231 337.34 52.6496 335.822 59.8344C334.312 67.0193 333.353 71.4499 331.402 80.3424C329.444 89.235 328.217 94.5233 326.046 104.305C323.876 114.087 322.672 119.603 320.565 129.252C318.457 138.9 317.34 143.842 315.5 152.545C313.659 161.249 312.802 165.388 311.363 172.77C309.931 180.159 309.342 183.598 308.311 189.469C307.281 195.34 306.848 197.827 306.219 202.139C305.582 206.444 305.173 208.096 305.134 211.016C305.102 213.943 305.205 215.029 306.03 216.761C306.856 218.484 307.635 218.956 309.263 219.657C310.891 220.365 311.953 220.562 314.171 220.27C316.388 219.979 317.576 219.287 320.352 218.201C323.121 217.115 324.599 216.288 328.021 214.848C331.45 213.416 333.447 212.613 337.474 211.032C341.493 209.45 343.774 208.561 348.131 206.939C352.496 205.318 354.934 204.405 359.276 202.942C363.617 201.47 365.937 200.809 369.854 199.613C373.778 198.425 375.862 197.834 378.883 196.977C381.903 196.111 383.185 195.961 384.939 195.3C386.7 194.639 386.976 194.081 387.676 193.664C388.368 193.246 388.25 193.435 388.423 193.215C388.596 192.995 388.753 192.861 388.533 192.578C388.32 192.294 388.265 191.924 387.337 191.791C386.417 191.665 385.78 191.476 383.9 191.94C382.029 192.404 380.927 193.05 377.962 194.104C374.997 195.159 372.968 195.891 369.083 197.221C365.198 198.543 362.878 199.227 358.52 200.723C354.171 202.226 351.71 203.131 347.321 204.697C342.924 206.271 340.636 207.128 336.554 208.568C332.472 210.016 330.419 210.74 326.919 211.921C323.42 213.101 321.776 213.652 319.055 214.471C316.341 215.297 315.138 215.525 313.337 216.021C311.536 216.517 311.032 217.02 310.065 216.957C309.09 216.887 308.933 216.879 308.484 215.69C308.036 214.502 307.887 213.668 307.824 211.008C307.761 208.34 307.761 206.633 308.162 202.375C308.563 198.11 308.925 195.584 309.813 189.713C310.702 183.842 311.253 180.396 312.605 173.006C313.966 165.624 314.808 161.485 316.609 152.781C318.418 144.078 319.519 139.128 321.626 129.488C323.742 119.84 324.953 114.323 327.155 104.557C329.365 94.783 330.616 89.5025 332.677 80.6336C334.737 71.7646 335.744 67.3341 337.466 60.2122C339.197 53.0824 339.928 49.8401 341.304 45.0004C342.673 40.1685 343.538 38.4687 344.332 36.037C345.134 33.6053 345.056 33.2748 345.3 32.8498C345.543 32.4328 345.268 32.8184 345.559 33.9358C345.842 35.0454 346.133 36.0842 346.731 38.4293C347.329 40.7666 347.934 42.427 348.54 45.6299C349.138 48.8328 349.334 50.8632 349.735 54.4438C350.137 58.0244 350.38 60.0154 350.53 63.541C350.679 67.0587 350.821 68.7191 350.49 72.0401C350.16 75.361 349.853 76.8326 348.878 80.1378C347.895 83.443 347.329 85.0956 345.591 88.5661C343.853 92.0286 342.862 93.8544 340.187 97.4665C337.513 101.071 335.728 103.07 332.213 106.619C328.689 110.16 326.77 111.915 322.602 115.189C318.433 118.47 316.105 119.981 311.386 123.019C306.667 126.056 304.064 127.497 298.999 130.385C293.926 133.273 291.3 134.579 286.038 137.459C280.784 140.34 277.945 141.796 272.699 144.778C267.453 147.761 264.701 149.146 259.801 152.356C254.909 155.575 252.376 157.212 248.216 160.848C244.055 164.475 242.081 166.443 238.998 170.511C235.915 174.58 234.531 176.744 232.824 181.182C231.11 185.621 230.717 188.021 230.449 192.711C230.19 197.402 230.481 199.959 231.503 204.618C232.525 209.277 233.501 211.732 235.569 215.997C237.638 220.263 239.148 222.466 241.853 225.944C244.559 229.415 246.092 231.099 249.112 233.365C252.133 235.624 253.863 236.615 256.962 237.253C260.068 237.89 261.901 237.796 264.614 236.545C267.335 235.293 268.491 234.081 270.568 230.997C272.644 227.912 273.493 225.913 275.004 221.112C276.514 216.304 277.19 213.424 278.11 206.979C279.022 200.534 279.251 196.772 279.573 188.887C279.903 181.009 279.911 176.508 279.738 167.576C279.565 158.636 279.29 153.875 278.692 144.211C278.102 134.548 277.536 129.354 276.773 119.273C276.018 109.192 275.593 103.833 274.893 93.815C274.193 83.7971 273.863 78.6111 273.265 69.1834C272.668 59.7558 272.392 54.8924 271.897 46.6766C271.409 38.4529 271.158 34.5261 270.812 28.0809C270.458 21.6436 270.332 18.8185 270.143 14.4745C269.954 10.1305 270.127 8.68254 269.876 6.3689C269.632 4.04739 269.419 3.58308 268.9 2.89056C268.381 2.19804 267.791 2.16658 267.288 2.90632Z" fill="black" stroke="black"/>
</svg>
