<svg width="100%" height="100%" viewBox="0 0 1919 238" fill="none" xmlns="http://www.w3.org/2000/svg">
<path d="M2 79.1911C83.4071 79.1911 165.977 111.231 246.386 36.3072C255.671 27.6551 264.919 2 274 2C277.667 54 284.9 160.2 284.5 169C284 180 285 230 268 235.5C251 241 230.5 203 236.5 186C242.5 169 249.5 157.5 315.5 125C381.5 92.5 352.5 34.5 351 31.5C349.5 28.5 309.5 206.5 312.5 216.5C315.5 226.5 375.5 193.5 389.5 193.5C403.5 193.5 1277 190 1324 193.5C1371 197 1907 193 1922.5 205" stroke="black" stroke-width="3" stroke-linecap="round" vector-effect="non-scaling-stroke"/>
</svg>
