<svg width="1920" height="211" viewBox="0 0 1920 211" fill="none" xmlns="http://www.w3.org/2000/svg">
<path d="M1921 107.84C1608.02 107.84 1295.04 107.84 982.059 107.84C918.145 107.84 853.807 106.953 790.607 117.544C748.276 124.638 706.423 134.736 664.42 143.465C632.102 150.181 599.026 157.189 565.777 155.429C536.19 153.862 515.392 131.543 497.934 109.967C492.258 102.951 478.142 89.417 478.667 79.1271C478.968 73.2272 555.68 83.376 560.35 83.9126C639.959 93.0612 718.749 109.086 797.256 124.589C890.173 142.938 984.257 168.246 1078.94 175.767C1121.45 179.144 1165.41 180.053 1207.16 172.444C1235.2 167.333 1262.99 160.866 1291.29 157.157C1326.09 152.594 1360.89 153.302 1395.9 153.302C1405.76 153.302 1415.59 150.909 1425.21 150.909C1431.24 150.909 1427.85 154.005 1420.32 151.175C1366 130.746 1315.18 98.9024 1262.11 75.4051C1182.76 40.271 1099.64 3.44782 1011.23 2.02793C935.362 0.80943 863.011 39.6666 799.562 77.1331C724.2 121.635 646.641 163.138 560.892 184.806C458.04 210.797 351.689 208.335 246.374 208.335C226.202 208.335 206.031 208.335 185.859 208.335C176.139 208.335 163.488 210.392 154.108 207.271C134.295 200.679 127.155 177.198 110.146 166.595C99.087 159.7 89.9523 151.636 80.5671 141.338C67.7116 127.232 49.7275 118.871 34.4342 107.707C21.127 97.9931 10.2271 86.062 -6 81.5198" stroke="black" stroke-width="3" stroke-linecap="round"/>
</svg>
