<svg width="100%" height="100%" viewBox="0 0 155 1650" fill="none" preserveAspectRatio="none" xmlns="http://www.w3.org/2000/svg">
<path d="M49.0886 2C47.7291 8.22214 44.1585 14.1232 41.6296 19.9105C30.5467 45.2732 20.3615 71.1343 10.5076 96.9761C-2.91178 132.168 -0.789121 161.298 19.2526 193.97C63.9697 266.868 128.738 331.51 145.67 417.473C151.777 448.481 153 479.684 153 511.188C153 564.131 150.977 616.913 140.397 668.977C119.493 771.844 78.6788 868.229 35.7138 963.743C28.2882 980.251 21.1582 996.9 14.7515 1013.82C14.6055 1014.2 8.5322 1032.27 7.93554 1029.71C3.08199 1008.88 9.76989 980.483 14.4943 960.212C17.0601 949.202 25.0868 908.897 38.0287 936.751C57.7772 979.255 63.3497 1031.97 72.3658 1077.01C91.5429 1172.81 108.787 1268.97 118.277 1366.22C121.76 1401.92 128.971 1444.08 123.164 1480.25C121.379 1491.36 109.562 1500.21 102.588 1508.25C88.7072 1524.24 75.5488 1538.21 65.2926 1556.18C56.8652 1570.94 25.8756 1648 60.6629 1648" stroke="black" stroke-width="3" stroke-linecap="round" vector-effect="non-scaling-stroke"/>
</svg>
