<svg width="1920" height="637" viewBox="0 0 1920 637" fill="none" xmlns="http://www.w3.org/2000/svg">
<path d="M0 247.228C6.22251 247.846 12.3579 251.312 17.9242 253.865C43.6684 265.675 68.5639 279.339 94.19 291.418C177.182 330.536 261.248 362.083 349.698 386.609C425.243 407.558 505.291 417.001 583.591 417.001C625.903 417.001 670.637 421.526 711.873 410.189C739.371 402.629 766.079 392.314 793.41 384.164C798.855 382.54 841.948 362.638 847.007 370.54C850.229 375.572 791.272 437.968 787.787 442.153C745.155 493.332 701.214 543.418 666.359 600.398C659.903 610.952 652.508 621.627 646.678 632.536C642.266 640.791 655.877 625.733 656.87 624.851C728.875 560.816 807.95 504.66 885.667 447.742C892.838 442.49 899.243 436.723 906.227 431.323C917.798 422.378 927.592 423.289 942.954 423.289C1000.35 423.289 1058.2 426.467 1115.52 425.035C1280.82 420.907 1432.98 373.086 1579.44 300.675C1677.28 252.302 1784.47 201.593 1849.01 109.593C1873.69 74.4035 1896.09 37.6539 1920 2" stroke="black" stroke-width="3" stroke-linecap="round"/>
</svg>
